
<svg
    xmlns="http://www.w3.org/2000/svg"
    viewBox="0 0 128 32"
    fill="currentColor"
>
    <path d="M18.4 0C7.8 0 0 7.8 0 18.4s7.8 18.4 18.4 18.4 18.4-7.8 18.4-18.4S28.9 0 18.4 0zm0 29.5c-6.1 0-11.1-5-11.1-11.1s5-11.1 11.1-11.1 11.1 5 11.1 11.1-5 11.1-11.1 11.1z" />
    <path d="M43 12.6c-3.1 0-5.6 2.5-5.6 5.6v9h4v-9c0-.9.7-1.6 1.6-1.6s1.6.7 1.6 1.6v9h4v-9c0-3.1-2.5-5.6-5.6-5.6zM61.6 29.5h3.6V11.4h-3.6v18.1zM74.2 20c0-5.9-4.8-10.7-10.7-10.7s-10.7 4.8-10.7 10.7 4.8 10.7 10.7 10.7 10.7-4.8 10.7-10.7zm-17.6 0c0-3.8 3.1-6.9 6.9-6.9s6.9 3.1 6.9 6.9-3.1 6.9-6.9 6.9-6.9-3.1-6.9-6.9zM96.5 14.9h4v14.6h4v-14.6h3.6v-3.1h-11.6v3.1zM116.4 12.6c-3.1 0-5.6 2.5-5.6 5.6v9h4v-9c0-.9.7-1.6 1.6-1.6s1.6.7 1.6 1.6v9h4v-9c0-3.1-2.5-5.6-5.6-5.6z" />
</svg>
